<svg width="20" height="20" viewBox="0 0 20 20" fill="none" xmlns="http://www.w3.org/2000/svg">
<g clip-path="url(#clip0_437_7881)">
<mask id="mask0_437_7881" style="mask-type:alpha" maskUnits="userSpaceOnUse" x="0" y="0" width="20" height="20">
<rect width="20" height="20" fill="#D9D9D9"/>
</mask>
<g mask="url(#mask0_437_7881)">
<path d="M6.75437 10C6.54312 10 6.36458 10.0719 6.21875 10.2156C6.07292 10.3594 6 10.5375 6 10.75V13.25C6 13.4625 6.07146 13.6406 6.21438 13.7844C6.35729 13.9281 6.53438 14 6.74563 14C6.95688 14 7.13542 13.9281 7.28125 13.7844C7.42708 13.6406 7.5 13.4625 7.5 13.25V10.75C7.5 10.5375 7.42854 10.3594 7.28562 10.2156C7.14271 10.0719 6.96562 10 6.75437 10ZM13.2544 6C13.0431 6 12.8646 6.07187 12.7188 6.21562C12.5729 6.35937 12.5 6.5375 12.5 6.75V13.25C12.5 13.4625 12.5715 13.6406 12.7144 13.7844C12.8573 13.9281 13.0344 14 13.2456 14C13.4569 14 13.6354 13.9281 13.7812 13.7844C13.9271 13.6406 14 13.4625 14 13.25V6.75C14 6.5375 13.9285 6.35937 13.7856 6.21562C13.6427 6.07187 13.4656 6 13.2544 6ZM10.0044 11C9.79312 11 9.61458 11.0719 9.46875 11.2156C9.32292 11.3594 9.25 11.5375 9.25 11.75V13.25C9.25 13.4625 9.32146 13.6406 9.46438 13.7844C9.60729 13.9281 9.78438 14 9.99563 14C10.2069 14 10.3854 13.9281 10.5312 13.7844C10.6771 13.6406 10.75 13.4625 10.75 13.25V11.75C10.75 11.5375 10.6785 11.3594 10.5356 11.2156C10.3927 11.0719 10.2156 11 10.0044 11ZM4.5 17C4.0875 17 3.73437 16.8531 3.44062 16.5594C3.14687 16.2656 3 15.9125 3 15.5V4.5C3 4.0875 3.14687 3.73438 3.44062 3.44063C3.73437 3.14688 4.0875 3 4.5 3H15.5C15.9125 3 16.2656 3.14688 16.5594 3.44063C16.8531 3.73438 17 4.0875 17 4.5V15.5C17 15.9125 16.8531 16.2656 16.5594 16.5594C16.2656 16.8531 15.9125 17 15.5 17H4.5ZM4.5 15.5H15.5V4.5H4.5V15.5ZM9.99563 10C10.2069 10 10.3854 9.92854 10.5312 9.78562C10.6771 9.64271 10.75 9.46563 10.75 9.25438C10.75 9.04313 10.6785 8.86458 10.5356 8.71875C10.3927 8.57292 10.2156 8.5 10.0044 8.5C9.79312 8.5 9.61458 8.57146 9.46875 8.71437C9.32292 8.85729 9.25 9.03437 9.25 9.24562C9.25 9.45687 9.32146 9.63542 9.46438 9.78125C9.60729 9.92708 9.78438 10 9.99563 10Z" fill="#BAC8DE"/>
</g>
</g>
<defs>
<clipPath id="clip0_437_7881">
<rect width="20" height="20" fill="white"/>
</clipPath>
</defs>
</svg>
